<?xml version="1.0" encoding="UTF-8"?><svg id="Layer_2" xmlns="http://www.w3.org/2000/svg" viewBox="0 0 400.08 399.67"><defs><style>.cls-1{fill:#fff;}@media (prefers-color-scheme: dark) {.cls-1 {fill: #000;}}</style></defs><g id="Dark"><path class="cls-1" d="M395.67,158.46C372.71,50.42,266.5-18.55,158.46,4.41,50.42,27.38-18.55,133.58,4.41,241.62c19.06,89.68,95.47,152.43,182.67,158.04v-142.52c-9.33-1.28-18.55-3.33-27.54-6.25-23.53-7.64-48.12-23.62-58-46.39-3.49,4.12-6.97,8.24-10.46,12.36v84.59c0,8.41-6.87,14.64-15,15-8.1,.36-15-7.15-15-15V85.45c0-8.41,6.87-14.64,15-15,8.1-.36,15,7.15,15,15v85.13c24.46-28.91,48.93-57.83,73.39-86.74,5.26-6.21,15.85-5.37,21.21,0,6.06,6.06,5.23,15.03,0,21.21-4.15,4.9-8.3,9.8-12.44,14.71l-45.63,53.93c.03,.58,.01,1.17-.07,1.76-.26,1.94-.43,3.89-.46,5.85-.02,1.59,.51,3.7,.34,5.3,.15,.74,.32,1.48,.51,2.22,.41,1.58,1.01,3.08,1.52,4.62,.42,.81,.82,1.63,1.27,2.43,.87,1.56,1.85,3.04,2.85,4.51,.01,.01,.03,.03,.04,.05,.62,.62,1.15,1.41,1.73,2.05,1.26,1.4,2.59,2.74,3.98,4.03,.64,.59,3.26,3.61,4.14,3.54-.3,.02-2.86-2.09-1.14-.89,.33,.23,.65,.48,.98,.71,.77,.55,1.55,1.09,2.34,1.62,3.17,2.11,6.49,4,9.9,5.69,1.05,.52,2.11,1.03,3.18,1.51,.17,.08,.58,.26,.98,.43,.62,.25,1.43,.58,1.68,.68,1.01,.39,2.02,.76,3.04,1.12,4.06,1.44,8.19,2.66,12.37,3.69,3.41,.84,6.84,1.52,10.3,2.12v-78.28c0-8.41,6.87-14.64,15-15,8.1-.36,15,7.15,15,15v80.09c5.26-.15,10.51-.51,15.74-1.09,.99-.11,3.71-.48,3.07-.38,.76-.11,1.53-.22,2.29-.34,2.77-.44,5.52-.94,8.27-1.49,5.42-1.1,10.79-2.41,16.11-3.94,4.9-1.41,9.74-3.01,14.53-4.78V103.45c0-8.41,6.87-14.64,15-15,8.1-.36,15,7.15,15,15v98.66c6.26-3.67,12.34-7.65,18.2-11.93,.76-.56,1.52-1.12,2.28-1.69,.15-.11,.89-.68,1.34-1.03,.31-.24,.68-.54,.7-.56,.56-.45,1.12-.9,1.68-1.35,2.44-1.99,4.84-4.03,7.2-6.12,5.22-4.63,10.2-9.52,15-14.6,5.58-5.91,15.6-5.61,21.21,0,5.85,5.85,5.56,15.32,0,21.21-19.34,20.49-42.25,37.69-67.61,49.99v83.4c0,8.41-6.87,14.64-15,15-8.1,.36-15-7.15-15-15v-71.4c-19.3,6.22-39.66,10.02-60,10.63v140.64c8.15-.71,16.34-1.91,24.54-3.66,108.04-22.97,177.01-129.17,154.05-237.21Z"/></g></svg>
