<?xml version="1.0" encoding="UTF-8"?><svg id="Layer_2" xmlns="http://www.w3.org/2000/svg" viewBox="0 0 400 400"><defs><style>.cls-1{fill:#f1f2f2;}</style></defs><g id="Old"><path class="cls-1" d="M241.61,395.63c-8.2,1.74-16.39,2.95-24.54,3.66v-140.61c20.34-.61,40.69-4.41,59.99-10.63v71.38c0,7.84,6.9,15.36,15,15,8.13-.36,15-6.59,15-15v-83.38c25.35-12.3,48.26-29.49,67.59-49.98,5.56-5.89,5.84-15.36,0-21.21-5.61-5.61-15.63-5.91-21.21,0-4.79,5.08-9.77,9.96-14.99,14.6-2.36,2.09-4.76,4.13-7.2,6.12-.56,.45-1.12,.9-1.68,1.35-.02,.02-.39,.31-.7,.56-.45,.35-1.19,.92-1.34,1.03-.75,.57-1.51,1.13-2.28,1.69-5.86,4.28-11.94,8.26-18.2,11.92V103.47c0-7.84-6.9-15.36-15-15-8.13,.36-15,6.59-15,15v113.03c-4.78,1.77-9.62,3.37-14.52,4.78-5.31,1.53-10.69,2.85-16.1,3.94-2.74,.55-5.5,1.05-8.27,1.49-.76,.12-1.53,.23-2.29,.34,.64-.1-2.08,.27-3.07,.38-5.23,.58-10.48,.94-15.73,1.09v-80.07c0-7.84-6.9-15.36-15-15-8.13,.36-15,6.59-15,15v78.26c-3.45-.6-6.89-1.28-10.29-2.12-4.18-1.03-8.31-2.25-12.37-3.69-1.02-.36-2.03-.73-3.03-1.12-.25-.1-1.06-.43-1.68-.68-.4-.18-.81-.35-.98-.43-1.07-.49-2.13-.99-3.18-1.51-3.41-1.7-6.72-3.59-9.89-5.69-.79-.53-1.57-1.06-2.34-1.62-.33-.23-.65-.48-.98-.71-1.72-1.19,.83,.92,1.14,.89-.88,.07-3.51-2.95-4.14-3.54-1.38-1.28-2.71-2.62-3.98-4.02-.58-.64-1.11-1.43-1.73-2.05-.01-.02-.03-.03-.04-.05-1-1.47-1.98-2.95-2.85-4.51-.45-.8-.84-1.62-1.27-2.43-.51-1.54-1.11-3.04-1.52-4.62-.19-.73-.36-1.47-.51-2.22,.17-1.6-.36-3.71-.34-5.3,.03-1.96,.2-3.91,.46-5.85,.08-.59,.1-1.17,.07-1.76,15.21-17.97,30.42-35.95,45.62-53.92,4.15-4.9,8.29-9.8,12.44-14.7,5.23-6.18,6.06-15.15,0-21.21-5.37-5.36-15.95-6.21-21.21,0-24.46,28.91-48.92,57.81-73.38,86.72V85.48c0-7.84-6.9-15.36-15-15-8.13,.36-15,6.59-15,15v215.96c0,7.84,6.9,15.36,15,15,8.13-.36,15-6.59,15-15v-84.57c3.49-4.12,6.97-8.24,10.46-12.36,9.88,22.77,34.47,38.74,57.99,46.38,8.99,2.92,18.2,4.96,27.53,6.25v142.49C99.9,394.01,23.51,331.27,4.45,241.61-18.51,133.59,50.45,27.41,158.47,4.45c108.02-22.96,214.2,45.99,237.16,154.02,2.74,12.91,4.16,25.79,4.37,38.51V0H0V400H400V204.07c-1.75,90.86-65.68,171.86-158.39,191.56Z"/></g></svg>